<?xml version="1.0" encoding="UTF-8" standalone="no"?>
<svg
   xmlns:dc="http://purl.org/dc/elements/1.1/"
   xmlns:cc="http://creativecommons.org/ns#"
   xmlns:rdf="http://www.w3.org/1999/02/22-rdf-syntax-ns#"
   xmlns:svg="http://www.w3.org/2000/svg"
   xmlns="http://www.w3.org/2000/svg"
   xmlns:xlink="http://www.w3.org/1999/xlink"
   xmlns:sodipodi="http://sodipodi.sourceforge.net/DTD/sodipodi-0.dtd"
   xmlns:inkscape="http://www.inkscape.org/namespaces/inkscape"
   width="144"
   height="136"
   viewBox="0 0 144 136"
   version="1.1"
   id="svg25"
   sodipodi:docname="logo.svg"
   inkscape:version="0.92.1 r15371">
  <metadata
     id="metadata29">
    <rdf:RDF>
      <cc:Work
         rdf:about="">
        <dc:format>image/svg+xml</dc:format>
        <dc:type
           rdf:resource="http://purl.org/dc/dcmitype/StillImage" />
      </cc:Work>
    </rdf:RDF>
  </metadata>
  <sodipodi:namedview
     pagecolor="#ffffff"
     bordercolor="#666666"
     borderopacity="1"
     objecttolerance="10"
     gridtolerance="10"
     guidetolerance="10"
     inkscape:pageopacity="0"
     inkscape:pageshadow="2"
     inkscape:window-width="640"
     inkscape:window-height="480"
     id="namedview27"
     showgrid="false"
     inkscape:zoom="1.7352941"
     inkscape:cx="72"
     inkscape:cy="68"
     inkscape:window-x="0"
     inkscape:window-y="0"
     inkscape:window-maximized="0"
     inkscape:current-layer="svg25" />
  <title
     id="title2">logo</title>
  <desc
     id="desc4">Created using Figma</desc>
  <g
     id="Canvas"
     transform="matrix(2 0 0 2 1244 802)"
     style="opacity:0.05">
    <g
       id="logo"
       style="">
      <g
         id="Group"
         style="">
        <g
           id="SYP"
           style="">
          <use
             xlink:href="#path0_fill"
             transform="matrix(6.12323e-17 1 -1 6.12323e-17 -550 -401)"
             id="use6"
             style="" />
        </g>
        <g
           id="g11"
           style="">
          <use
             xlink:href="#path1_fill"
             transform="translate(-622 -400.65)"
             id="use9"
             style="" />
        </g>
        <g
           id="g15"
           style="">
          <use
             xlink:href="#path2_fill"
             transform="matrix(6.12323e-17 1 -1 6.12323e-17 -567.513 -360.135)"
             id="use13"
             style="" />
        </g>
      </g>
    </g>
  </g>
  <defs
     id="defs23">
    <path
       id="path0_fill"
       d="M 27.5079 0L 18.2141 14.1509L 8.96692 0L 0 0L 14.4778 21.203L 14.4778 35.027L 21.997 35.027L 21.997 21.203L 36.4748 0L 27.5079 0Z" />
    <path
       id="path1_fill"
       d="M 15.4119 14.5712C 12.7498 13.7306 9.24714 12.563 9.24714 9.71416C 9.24714 7.19222 11.629 6.21146 13.8707 6.21146C 17.7937 6.21146 21.0629 9.57405 22.6508 11.6757L 27.6947 6.63178C 24.0052 2.56865 19.1014 0 13.8707 0C 7.75265 0 1.7747 3.31589 1.7747 9.66746C 1.7747 16.2992 8.17297 18.9146 13.4504 20.5025C 16.3459 21.3898 19.8486 22.6508 19.8486 25.7332C 19.8486 28.909 16.3926 29.5628 13.8707 29.6095C 10.368 29.6095 6.49168 26.6672 5.2307 24.0519L 0 29.2359C 3.73622 33.2523 7.70595 35.821 13.8707 35.821C 21.3898 35.821 27.3678 32.5985 27.3678 25.7332C 27.3678 18.9613 21.0162 16.2525 15.4119 14.5712Z" />
    <path
       id="path2_fill"
       d="M 26.9475 13.1702C 26.9475 5.93124 21.203 0.0467027 14.1042 0L 0 0L 0 35.027L 7.51913 35.027L 7.51913 26.3403L 14.1042 26.3403C 21.203 26.2936 26.9475 20.4558 26.9475 13.1702ZM 14.0108 20.1289L 7.51913 20.1289L 7.51913 6.21146L 14.0108 6.21146C 16.9998 6.21146 19.475 9.38724 19.475 13.1702C 19.475 16.9998 16.9998 20.1289 14.0108 20.1289Z" />
  </defs>
</svg>
