<svg width="144" height="136" version="1.1" viewBox="0 0 144 136" xmlns="http://www.w3.org/2000/svg" xmlns:xlink="http://www.w3.org/1999/xlink">
 <title>logo</title>
 <desc>Created using Figma</desc>
 <use transform="matrix(0,2,-2,0,144,0)" width="100%" height="100%" xlink:href="#path0_fill"/>
 <use transform="matrix(2 0 0 2 0 .7)" width="100%" height="100%" xlink:href="#path1_fill"/>
 <use transform="matrix(0 2 -2 0 108.97 81.73)" width="100%" height="100%" xlink:href="#path2_fill"/>
 <defs>
  <path id="path0_fill" d="m27.508 0l-9.2938 14.151-9.2472-14.151h-8.9669l14.478 21.203v13.824h7.5192v-13.824l14.478-21.203h-8.9669z"/>
  <path id="path1_fill" d="m15.412 14.571c-2.6621-0.8406-6.1648-2.0082-6.1648-4.857 0-2.5219 2.3819-3.5027 4.6236-3.5027 3.923 0 7.1922 3.3626 8.7801 5.4642l5.0439-5.0439c-3.6895-4.0631-8.5933-6.6318-13.824-6.6318-6.118 0-12.096 3.3159-12.096 9.6675 0 6.6317 6.3983 9.2471 11.676 10.835 2.8955 0.8873 6.3982 2.1483 6.3982 5.2307 0 3.1758-3.456 3.8296-5.9779 3.8763-3.5027 0-7.379-2.9423-8.64-5.5576l-5.2307 5.184c3.7362 4.0164 7.706 6.5851 13.871 6.5851 7.5191 0 13.497-3.2225 13.497-10.088 0-6.7719-6.3516-9.4807-11.956-11.162z"/>
  <path id="path2_fill" d="m26.948 13.17c0-7.239-5.7445-13.123-12.843-13.17h-14.104v35.027h7.5191v-8.6867h6.5851c7.0988-0.0467 12.843-5.8845 12.843-13.17zm-12.937 6.9587h-6.4917v-13.917h6.4917c2.989 0 5.4642 3.1758 5.4642 6.9587 0 3.8296-2.4752 6.9587-5.4642 6.9587z"/>
 </defs>
</svg>
