<svg width="64" height="64" viewBox="0 0 64 64" version="1.1" xmlns="http://www.w3.org/2000/svg" xmlns:xlink="http://www.w3.org/1999/xlink">
<title>Web Design</title>
<desc>Created using Figma</desc>
<g id="Canvas" transform="translate(876 204)">
<g id="Web Design">
<g id="Background">
<use xlink:href="#path0_fill" transform="translate(-876 -204)" fill="#FFFFFF" fill-opacity="0.01"/>
</g>
<g id="Web Design Icon">
<g id="Rectangle 14">
<use xlink:href="#path1_stroke" transform="translate(-868 -192)"/>
</g>
<g id="Vector 14">
<use xlink:href="#path2_stroke" transform="translate(-854 -150)"/>
</g>
<g id="Rectangle 15">
<mask id="mask0_outline_ins">
<use xlink:href="#path3_fill" fill="white" transform="translate(-862 -170)"/>
</mask>
<g mask="url(#mask0_outline_ins)">
<use xlink:href="#path4_stroke_2x" transform="translate(-862 -170)"/>
</g>
</g>
<g id="Rectangle 15">
<mask id="mask1_outline_ins">
<use xlink:href="#path3_fill" fill="white" transform="translate(-849 -170)"/>
</mask>
<g mask="url(#mask1_outline_ins)">
<use xlink:href="#path4_stroke_2x" transform="translate(-849 -170)"/>
</g>
</g>
<g id="Rectangle 15">
<mask id="mask2_outline_ins">
<use xlink:href="#path3_fill" fill="white" transform="translate(-836 -170)"/>
</mask>
<g mask="url(#mask2_outline_ins)">
<use xlink:href="#path4_stroke_2x" transform="translate(-836 -170)"/>
</g>
</g>
<g id="Rectangle 16">
<mask id="mask3_outline_ins">
<use xlink:href="#path5_fill" fill="white" transform="translate(-862 -186)"/>
</mask>
<g mask="url(#mask3_outline_ins)">
<use xlink:href="#path6_stroke_2x" transform="translate(-862 -186)"/>
</g>
</g>
</g>
</g>
</g>
<defs>
<path id="path0_fill" d="M 0 0L 64 0L 64 64L 0 64L 0 0Z"/>
<path id="path1_stroke" d="M 0 0L 0 -1L -1 -1L -1 0L 0 0ZM 48 0L 49 0L 49 -1L 48 -1L 48 0ZM 48 34L 48 35L 49 35L 49 34L 48 34ZM 0 34L -1 34L -1 35L 0 35L 0 34ZM 0 1L 48 1L 48 -1L 0 -1L 0 1ZM 47 0L 47 34L 49 34L 49 0L 47 0ZM 48 33L 0 33L 0 35L 48 35L 48 33ZM 1 34L 1 0L -1 0L -1 34L 1 34Z"/>
<path id="path2_stroke" d="M 0 1L 20 1L 20 -1L 0 -1L 0 1Z"/>
<path id="path3_fill" d="M 0 0L 10 0L 10 6L 0 6L 0 0Z"/>
<path id="path4_stroke_2x" d="M 0 0L 0 -2L -2 -2L -2 0L 0 0ZM 10 0L 12 0L 12 -2L 10 -2L 10 0ZM 10 6L 10 8L 12 8L 12 6L 10 6ZM 0 6L -2 6L -2 8L 0 8L 0 6ZM 0 2L 10 2L 10 -2L 0 -2L 0 2ZM 8 0L 8 6L 12 6L 12 0L 8 0ZM 10 4L 0 4L 0 8L 10 8L 10 4ZM 2 6L 2 0L -2 0L -2 6L 2 6Z"/>
<path id="path5_fill" d="M 0 0L 36 0L 36 13L 0 13L 0 0Z"/>
<path id="path6_stroke_2x" d="M 0 0L 0 -2L -2 -2L -2 0L 0 0ZM 36 0L 38 0L 38 -2L 36 -2L 36 0ZM 36 13L 36 15L 38 15L 38 13L 36 13ZM 0 13L -2 13L -2 15L 0 15L 0 13ZM 0 2L 36 2L 36 -2L 0 -2L 0 2ZM 34 0L 34 13L 38 13L 38 0L 34 0ZM 36 11L 0 11L 0 15L 36 15L 36 11ZM 2 13L 2 0L -2 0L -2 13L 2 13Z"/>
</defs>
</svg>
